<?xml version="1.0" encoding="utf-8"?>
<!-- Generator: Adobe Illustrator 21.0.2, SVG Export Plug-In . SVG Version: 6.00 Build 0)  -->
<svg version="1.1" id="Calque_1" xmlns="http://www.w3.org/2000/svg" xmlns:xlink="http://www.w3.org/1999/xlink" x="0px" y="0px"
	 viewBox="0 0 60 60" style="enable-background:new 0 0 60 60;" xml:space="preserve">
<style type="text/css">
	.st0{fill:#FFFFFF;}
	.st1{fill:none;stroke:#FFFFFF;stroke-width:2.5;stroke-miterlimit:10;}
</style>
<g>
	<path class="st0" d="M24.8,31.1V42c0,2.9,2.3,5.2,5.2,5.2s5.2-2.3,5.2-5.2V31.1H24.8z"/>
	<path class="st1" d="M24.8,16.1h10.4V42c0,2.9-2.3,5.2-5.2,5.2S24.8,45,24.8,42C24.8,42.1,24.8,16.1,24.8,16.1z"/>
	<path class="st1" d="M23.1,14.5c0-1,0.8-1.7,1.7-1.7h10.4c1,0,1.7,0.8,1.7,1.7c0,1-0.8,1.7-1.7,1.7H24.8
		C23.8,16.1,23.1,15.4,23.1,14.5z"/>
</g>
<g>
	<path class="st0" d="M30,3c14.9,0,27,12.1,27,27S44.9,57,30,57S3,44.9,3,30S15.1,3,30,3 M30,0C13.4,0,0,13.4,0,30s13.4,30,30,30
		s30-13.4,30-30S46.6,0,30,0L30,0z"/>
</g>
</svg>
