<?xml version="1.0" encoding="UTF-8"?>
<svg width="81px" height="24px" viewBox="0 0 81 24" version="1.1" xmlns="http://www.w3.org/2000/svg" xmlns:xlink="http://www.w3.org/1999/xlink">
    <!-- Generator: Sketch 40 (33762) - http://www.bohemiancoding.com/sketch -->
    <title>Page 1</title>
    <desc>Created with Sketch.</desc>
    <defs>
        <polygon id="path-1" points="5.25320288 0.00604878049 0.0427372662 0.00604878049 0.0427372662 5.26401951 5.25320288 5.26401951 5.25320288 0.00604878049"></polygon>
    </defs>
    <g id="Page-1" stroke="none" stroke-width="1" fill="none" fill-rule="evenodd">
        <g id="Desktop-HD" transform="translate(-1304.000000, -950.000000)">
            <g id="Group-23" transform="translate(1196.000000, 910.000000)">
                <g id="Group-25">
                    <g id="Group-21" transform="translate(0.000000, 40.000000)">
                        <g id="Group-24">
                            <g id="Page-1" transform="translate(108.000000, 0.000000)">
                                <g id="Group-7" transform="translate(19.918273, 0.189073)">
                                    <mask id="mask-2" fill="white">
                                        <use xlink:href="#path-1"></use>
                                    </mask>
                                    <g id="Clip-6"></g>
                                    <path d="M5.25320288,2.63533659 C5.25320288,1.18401951 4.08730705,0.00587317073 2.64797007,0.00587317073 C1.20940662,0.00587317073 0.0427372662,1.18401951 0.0427372662,2.63533659 C0.0427372662,4.08684878 1.20940662,5.26401951 2.64797007,5.26401951 C4.08730705,5.26401951 5.25320288,4.08684878 5.25320288,2.63533659" id="Fill-5" fill="#FFFFFF" mask="url(#mask-2)"></path>
                                </g>
                                <polygon id="Fill-21" fill="#FFFFFF" points="61.4825853 5.36357073 60.3188167 5.36357073 60.3188167 6.69898537 59.8748132 6.69898537 59.8748132 3.64298537 60.3188167 3.64298537 60.3188167 4.95303415 61.4825853 4.95303415 61.4825853 3.64298537 61.9267822 3.64298537 61.9267822 6.69898537 61.4825853 6.69898537"></polygon>
                                <path d="M64.0082611,5.60499512 L63.5837891,4.26801951 L63.5754737,4.26801951 L63.1508084,5.60499512 L64.0082611,5.60499512 Z M64.1347324,6.01553171 L63.0220165,6.01553171 L62.7969206,6.69884878 L62.3260372,6.69884878 L63.392535,3.64284878 L63.7646006,3.64284878 L64.8309051,6.69884878 L64.3621488,6.69884878 L64.1347324,6.01553171 Z" id="Fill-23" fill="#FFFFFF"></path>
                                <polygon id="Fill-27" fill="#FFFFFF" points="68.3276063 4.05354146 67.5235269 4.05354146 67.5235269 3.64300488 69.5762694 3.64300488 69.5762694 4.05354146 68.7718032 4.05354146 68.7718032 6.69900488 68.3276063 6.69900488"></polygon>
                                <polygon id="Fill-29" fill="#FFFFFF" points="69.9562443 3.64290732 71.8303024 3.64290732 71.8303024 4.07861463 70.4004411 4.07861463 70.4004411 4.95315122 71.6210638 4.95315122 71.6210638 5.36349268 70.4004411 5.36349268 70.4004411 6.2632 71.8303024 6.2632 71.8303024 6.69890732 69.9562443 6.69890732"></polygon>
                                <g id="Group-20">
                                    <path d="M25.1714763,10.6132878 C25.1714763,9.16216585 24.0055804,7.98401951 22.5662435,7.98401951 C21.12768,7.98401951 19.9610106,9.16216585 19.9610106,10.6132878 C19.9610106,12.0648 21.12768,13.2419707 22.5662435,13.2419707 C24.0055804,13.2419707 25.1714763,12.0648 25.1714763,10.6132878" id="Fill-1" fill="#FFFFFF"></path>
                                    <path d="M25.1714763,18.4029073 C25.1714763,16.9517854 24.0055804,15.773639 22.5662435,15.773639 C21.12768,15.773639 19.9610106,16.9517854 19.9610106,18.4029073 C19.9610106,19.8544195 21.12768,21.0313951 22.5662435,21.0313951 C24.0055804,21.0313951 25.1714763,19.8544195 25.1714763,18.4029073" id="Fill-3" fill="#FFFFFF"></path>
                                    <g id="Group-10" transform="translate(0.000000, 0.384195)" fill="#ED2B23">
                                        <polygon id="Fill-8" points="2.57059822 20.3110244 0.371852892 20.3110244 -1.93381296e-05 13.4755122 -1.93381296e-05 0.147317073 2.94247045 0.147317073 2.94247045 13.4755122"></polygon>
                                    </g>
                                    <polygon id="Fill-11" fill="#FFFFFF" points="15.4805014 20.6952195 13.2817561 20.6952195 12.9100772 13.8597073 12.9100772 0.531512195 15.8521803 0.531512195 15.8521803 13.8597073"></polygon>
                                    <polygon id="Fill-13" fill="#FFFFFF" points="53.2400944 20.6952195 51.0411557 20.6952195 50.6694768 13.2587317 50.6694768 0.531512195 53.6117732 0.531512195 53.6117732 13.2587317"></polygon>
                                    <polygon id="Fill-15" fill="#FFFFFF" points="32.5459366 20.6952195 29.4178007 20.6952195 37.8708839 0.531512195 40.9992131 0.531512195"></polygon>
                                    <path d="M10.4995214,10.6132878 C10.4995214,9.16216585 9.33362555,7.98401951 7.89428858,7.98401951 C6.45572512,7.98401951 5.28905577,9.16216585 5.28905577,10.6132878 C5.28905577,12.0648 6.45572512,13.2419707 7.89428858,13.2419707 C9.33362555,13.2419707 10.4995214,12.0648 10.4995214,10.6132878" id="Fill-17" fill="#ED2B23"></path>
                                    <path d="M47.9644013,23.9410341 C45.3643898,24.3521561 42.5727374,22.308839 42.2929146,19.8358634 C41.9982016,17.3517659 43.9086154,15.4005463 46.2670936,15.777522 C48.1815685,16.0846439 48.9198982,18.252839 47.9767777,19.7371317 C46.9404473,21.2504976 44.98923,20.937522 43.959668,20.6391805 C43.5023213,20.4936195 43.2518925,20.5950829 43.444887,21.0173268 C43.8848295,22.0797659 45.5788496,23.8050341 47.95918,23.6411317 L47.9644013,23.9410341 Z" id="Fill-19" fill="#FFFFFF"></path>
                                    <path d="M65.0952767,3.64290732 L65.5394735,3.64290732 L65.5394735,5.61480976 C65.5421808,5.82339512 65.5998085,5.98202927 65.7127431,6.09110244 C65.8227771,6.20583415 65.9643322,6.2632 66.1377952,6.2632 C66.3110649,6.2632 66.454167,6.20583415 66.5671017,6.09110244 C66.6771357,5.98202927 66.7337964,5.82339512 66.7363103,5.61480976 L66.7363103,3.64290732 L67.1805072,3.64290732 L67.1805072,5.66339512 C67.1748991,5.9849561 67.0751144,6.23998049 66.8805728,6.42846829 C66.6846775,6.62261463 66.4371495,6.72115122 66.1377952,6.72407805 C65.8438557,6.72115122 65.5984548,6.62280976 65.4012059,6.42885854 C65.1998959,6.24056585 65.097984,5.98573659 65.0952767,5.66456585 L65.0952767,3.64290732 Z" id="Fill-25" fill="#FFFFFF"></path>
                                    <path d="M60.9379462,7.55030244 L61.4904366,7.55030244 L60.9058449,8.17469268 L60.5602726,8.17469268 L60.9379462,7.55030244 Z M59.8747359,8.3259122 L61.748794,8.3259122 L61.748794,8.76161951 L60.3189327,8.76161951 L60.3189327,9.63596098 L61.5395555,9.63596098 L61.5395555,10.0464976 L60.3189327,10.0464976 L60.3189327,10.9460098 L61.748794,10.9460098 L61.748794,11.3819122 L59.8747359,11.3819122 L59.8747359,8.3259122 Z" id="Fill-31" fill="#FFFFFF"></path>
                                    <path d="M64.2197622,10.5280195 C64.1551728,10.8113366 64.0323757,11.0288976 63.8515642,11.1810927 C63.6649513,11.3317268 63.4439164,11.4070439 63.1890399,11.4070439 C62.9587228,11.4015805 62.7659216,11.3428488 62.6119901,11.2310439 C62.4547711,11.1233366 62.3410629,10.9990439 62.270092,10.8577756 C62.2486266,10.8117268 62.2289018,10.7678244 62.2114974,10.7258732 C62.1956402,10.6825561 62.1821035,10.6281171 62.1714675,10.562361 C62.1511625,10.4394341 62.1413,10.2031415 62.1413,9.85387317 C62.1413,9.49894634 62.1511625,9.26148293 62.1714675,9.1412878 C62.1927395,9.02089756 62.2254209,8.92392195 62.270092,8.84977561 C62.3410629,8.70870244 62.4551579,8.58284878 62.6119901,8.47260488 C62.7663084,8.3608 62.9587228,8.30362927 63.1894266,8.30070244 C63.4727302,8.30362927 63.7034341,8.39065366 63.8817317,8.56236098 C64.0600292,8.73523902 64.1729639,8.94948293 64.2197622,9.20489756 L63.7481052,9.20489756 C63.7117495,9.08158049 63.6459999,8.97660488 63.5504695,8.88977561 C63.4510715,8.80723902 63.3302082,8.76450732 63.1878796,8.76158049 C63.0832603,8.76450732 62.9929513,8.78616585 62.9179193,8.82675122 C62.8411469,8.86870244 62.7796517,8.92138537 62.7324666,8.98421463 C62.6746456,9.05016585 62.6363561,9.13465366 62.6175982,9.23845854 C62.5961328,9.34753171 62.5854969,9.5528 62.5854969,9.85387317 C62.5854969,10.1549463 62.5961328,10.3586537 62.6175982,10.4651902 C62.6363561,10.5715317 62.6746456,10.6575805 62.7324666,10.7235317 C62.7796517,10.786361 62.8415337,10.837678 62.9183061,10.8767024 C62.993338,10.9229463 63.0832603,10.9461659 63.1882664,10.9461659 C63.4383084,10.9461659 63.6249213,10.8068488 63.7486854,10.5280195 L64.2197622,10.5280195 Z" id="Fill-33" fill="#FFFFFF"></path>
                                    <path d="M64.9513623,9.85385366 C64.9513623,10.1549268 64.962385,10.3586341 64.9838504,10.4651707 C65.002415,10.5715122 65.0408978,10.657561 65.0987188,10.7235122 C65.1455171,10.7863415 65.2073991,10.8376585 65.2841715,10.8766829 C65.3592035,10.9229268 65.4491258,10.9461463 65.5541318,10.9461463 C65.6602981,10.9461463 65.7521542,10.9229268 65.8302803,10.8766829 C65.9039586,10.8376585 65.9631332,10.7863415 66.0074176,10.7235122 C66.0652386,10.657561 66.1048817,10.5715122 66.1263471,10.4651707 C66.1468455,10.3586341 66.1565145,10.1549268 66.1565145,9.85385366 C66.1565145,9.55278049 66.1468455,9.3475122 66.1263471,9.23843902 C66.1048817,9.13463415 66.0652386,9.05014634 66.0074176,8.98419512 C65.9631332,8.92136585 65.9039586,8.86868293 65.8302803,8.82673171 C65.7521542,8.78614634 65.6602981,8.7644878 65.5541318,8.76156098 C65.4491258,8.7644878 65.3592035,8.78614634 65.2841715,8.82673171 C65.2073991,8.86868293 65.1455171,8.92136585 65.0987188,8.98419512 C65.0408978,9.05014634 65.002415,9.13463415 64.9838504,9.23843902 C64.962385,9.3475122 64.9513623,9.55278049 64.9513623,9.85385366 M64.5071655,9.85385366 C64.5071655,9.49814634 64.5174147,9.26009756 64.5373329,9.13970732 C64.5589917,9.01931707 64.5918665,8.92195122 64.6359574,8.84780488 C64.7069283,8.70712195 64.8210233,8.58185366 64.9778555,8.472 C65.1319804,8.36058537 65.3245882,8.30360976 65.5549053,8.30068293 C65.7883165,8.30360976 65.9828581,8.36078049 66.1385301,8.47258537 C66.292655,8.58282927 66.4040426,8.70868293 66.4723062,8.8497561 C66.5218118,8.92390244 66.5558469,9.02087805 66.5747983,9.14126829 C66.5920092,9.26146341 66.6007114,9.49892683 66.6007114,9.85385366 C66.6007114,10.203122 66.5920092,10.4394146 66.5747983,10.5623415 C66.5558469,10.6852683 66.5218118,10.7838049 66.4719194,10.8579512 C66.4036558,10.9990244 66.292655,11.1233171 66.1385301,11.2310244 C65.9828581,11.3428293 65.7883165,11.401561 65.5549053,11.4070244 C65.3245882,11.401561 65.1319804,11.3428293 64.9778555,11.2310244 C64.8210233,11.1233171 64.7069283,10.9990244 64.6359574,10.8579512 C64.6144921,10.8117073 64.595154,10.7678049 64.5777496,10.7258537 C64.5615056,10.6825366 64.5479689,10.6280976 64.5373329,10.5623415 C64.5174147,10.4394146 64.5071655,10.203122 64.5071655,9.85385366" id="Fill-35" fill="#FFFFFF"></path>
                                    <polygon id="Fill-37" fill="#FFFFFF" points="67.2017018 8.32583415 67.6458986 8.32583415 67.6458986 10.9461268 69.0757599 10.9461268 69.0757599 11.3818341 67.2017018 11.3818341"></polygon>
                                    <polygon id="Fill-39" fill="#FFFFFF" points="69.5675865 8.32583415 71.4416447 8.32583415 71.4416447 8.76154146 70.0117834 8.76154146 70.0117834 9.63607805 71.2324061 9.63607805 71.2324061 10.0464195 70.0117834 10.0464195 70.0117834 10.9461268 71.4416447 10.9461268 71.4416447 11.3818341 69.5675865 11.3818341"></polygon>
                                    <path d="M60.9353163,13.9094829 L60.5524213,15.0214829 L61.3054481,15.0214829 L60.9353163,13.9094829 Z M61.6415447,16.0648 L61.4630538,15.5237268 L60.3865001,15.5237268 L60.2033681,16.0648 L59.5864817,16.0648 L60.6883683,13.0080195 L61.1520967,13.0080195 L62.2584311,16.0648 L61.6415447,16.0648 Z" id="Fill-41" fill="#FFFFFF"></path>
                                    <polygon id="Fill-43" fill="#FFFFFF" points="62.6326819 16.064878 62.6326819 13.0079024 63.2242353 13.0079024 63.2242353 15.5323902 64.5985961 15.5323902 64.5985961 16.064878"></polygon>
                                    <path d="M66.287279,14.7810537 L65.670586,14.7810537 L65.670586,15.5324683 L66.287279,15.5324683 C66.5554988,15.5324683 66.6831305,15.3605659 66.6831305,15.1545171 C66.6831305,14.9484683 66.5554988,14.7810537 66.287279,14.7810537 M66.2491828,13.5404683 L65.670586,13.5404683 L65.670586,14.2444683 L66.2491828,14.2444683 C66.5003852,14.2444683 66.6403932,14.1026146 66.6403932,13.8922732 C66.6403932,13.6819317 66.5003852,13.5404683 66.2491828,13.5404683 M66.3470338,16.0649561 L65.0790326,16.0649561 L65.0790326,13.0079805 L66.2959811,13.0079805 C66.8875345,13.0079805 67.2319466,13.3428098 67.2319466,13.8665171 C67.2319466,14.2058341 67.010525,14.424761 66.8575604,14.4977366 C67.0404991,14.5835902 67.2744905,14.7769561 67.2744905,15.1845659 C67.2744905,15.7558829 66.8875345,16.0649561 66.3470338,16.0649561" id="Fill-45" fill="#FFFFFF"></path>
                                    <polygon id="Fill-47" fill="#FFFFFF" points="67.8781495 16.064878 67.8781495 13.0079024 69.8738445 13.0079024 69.8738445 13.5403902 68.4697029 13.5403902 68.4697029 14.2572683 69.6653795 14.2572683 69.6653795 14.789561 68.4697029 14.789561 68.4697029 15.5323902 69.8738445 15.5323902 69.8738445 16.064878"></polygon>
                                    <path d="M71.6011262,13.5403902 L71.0436079,13.5403902 L71.0436079,14.3474146 L71.6011262,14.3474146 C71.8606439,14.3474146 72.0306261,14.18 72.0306261,13.9439024 C72.0306261,13.7076098 71.8606439,13.5403902 71.6011262,13.5403902 L71.6011262,13.5403902 Z M72.0604068,16.064878 L71.4688534,14.8453659 L71.0436079,14.8453659 L71.0436079,16.064878 L70.4522479,16.064878 L70.4522479,13.0079024 L71.6392223,13.0079024 C72.2561087,13.0079024 72.6219861,13.432878 72.6219861,13.9439024 C72.6219861,14.3733659 72.3626618,14.6395122 72.0691089,14.7468293 L72.7455567,16.064878 L72.0604068,16.064878 Z" id="Fill-49" fill="#FFFFFF"></path>
                                    <polygon id="Fill-51" fill="#FFFFFF" points="74.3919277 13.5403902 74.3919277 16.064878 73.8003743 16.064878 73.8003743 13.5403902 73.0088647 13.5403902 73.0088647 13.0079024 75.183244 13.0079024 75.183244 13.5403902"></polygon>
                                    <path d="M60.3566807,20.7733463 C60.0288995,20.7733463 59.8034169,20.6876878 59.5779343,20.4601756 L59.9691446,20.0695415 C60.0673823,20.168078 60.1605921,20.2408585 60.3566807,20.2408585 C60.6459792,20.2408585 60.8329789,20.0695415 60.8329789,19.7173463 L60.8329789,17.6910049 L61.4243389,17.6910049 L61.4243389,19.7432976 C61.4243389,20.4170537 60.91826,20.7733463 60.3566807,20.7733463" id="Fill-53" fill="#FFFFFF"></path>
                                    <path d="M63.0666489,18.5923317 L62.6837539,19.7043317 L63.4367807,19.7043317 L63.0666489,18.5923317 Z M63.7728774,20.7478439 L63.5943864,20.2065756 L62.5178327,20.2065756 L62.3350874,20.7478439 L61.7178143,20.7478439 L62.8200877,17.6910634 L63.2838161,17.6910634 L64.3901504,20.7478439 L63.7728774,20.7478439 Z" id="Fill-55" fill="#FFFFFF"></path>
                                    <path d="M65.7343438,20.7733463 C65.4110103,20.7733463 65.1387294,20.6617366 64.9173079,20.4387122 C64.7856152,20.3054439 64.7047818,20.1511024 64.6707467,19.9792 C64.6363248,19.8076878 64.6193073,19.5542244 64.6193073,19.2192 C64.6193073,18.8841756 64.6363248,18.6311024 64.6707467,18.4593951 C64.7047818,18.2832 64.7856152,18.1331512 64.9173079,18.000078 C65.1387294,17.7768585 65.4110103,17.6650537 65.7343438,17.6650537 C66.3171951,17.6650537 66.7468883,18.0084683 66.8493804,18.6311024 L66.2491248,18.6311024 C66.185309,18.3694439 66.0236422,18.1975415 65.7384048,18.1975415 C65.5769315,18.1975415 65.4491064,18.2488585 65.3599576,18.3563707 C65.2365804,18.4894439 65.2108607,18.6270049 65.2108607,19.2192 C65.2108607,19.8117854 65.2365804,19.9489561 65.3599576,20.0824195 C65.4491064,20.1895415 65.5769315,20.2408585 65.7384048,20.2408585 C66.0236422,20.2408585 66.185309,20.0695415 66.2491248,19.8076878 L66.8493804,19.8076878 C66.7468883,20.4299317 66.3129407,20.7733463 65.7343438,20.7733463" id="Fill-57" fill="#FFFFFF"></path>
                                    <path d="M68.6188192,18.3606244 C68.5339248,18.2618927 68.401652,18.1975024 68.2399853,18.1975024 C68.0783185,18.1975024 67.9423715,18.2618927 67.8570903,18.3606244 C67.7422218,18.4894049 67.7124411,18.6312585 67.7124411,19.219161 C67.7124411,19.8076488 67.7422218,19.9491122 67.8570903,20.0778927 C67.9423715,20.1766244 68.0783185,20.2410146 68.2399853,20.2410146 C68.3125033,20.2410146 68.3805735,20.2238439 68.4356871,20.1854049 L68.1719151,19.9235512 L68.4869332,19.6097951 L68.7124158,19.8373073 C68.7594074,19.7044293 68.7677228,19.5282341 68.7677228,19.219161 C68.7677228,18.6312585 68.7336877,18.4894049 68.6188192,18.3606244 L68.6188192,18.3606244 Z M69.1208371,20.876722 L68.853004,20.6060878 C68.6826351,20.7176976 68.478231,20.7733073 68.2399853,20.7733073 C67.8955732,20.7733073 67.6316077,20.6533073 67.4188883,20.4386732 C67.1125723,20.1292098 67.1208877,19.7473561 67.1208877,19.219161 C67.1208877,18.6913561 67.1125723,18.3091122 67.4188883,18.000039 C67.6316077,17.7852098 67.8955732,17.6652098 68.2399853,17.6652098 C68.5847841,17.6652098 68.8443018,17.7852098 69.0570212,18.000039 C69.3633372,18.3091122 69.3590828,18.6913561 69.3590828,19.219161 C69.3590828,19.6788683 69.3633372,20.0179902 69.1716963,20.3011122 L69.4316008,20.5629659 L69.1208371,20.876722 Z" id="Fill-59" fill="#FFFFFF"></path>
                                    <path d="M71.0266484,20.7733463 C70.4053143,20.7733463 69.9116119,20.3483707 69.9116119,19.7001756 L69.9116119,17.6910049 L70.5031652,17.6910049 L70.5031652,19.6789073 C70.5031652,20.0305171 70.7075693,20.2408585 71.0266484,20.2408585 C71.3457275,20.2408585 71.554386,20.0305171 71.554386,19.6789073 L71.554386,17.6910049 L72.1416849,17.6910049 L72.1416849,19.7001756 C72.1416849,20.3483707 71.6479825,20.7733463 71.0266484,20.7733463" id="Fill-61" fill="#FFFFFF"></path>
                                    <path d="M73.8174499,18.5923317 L73.4345549,19.7043317 L74.1875817,19.7043317 L73.8174499,18.5923317 Z M74.5236784,20.7478439 L74.3451875,20.2065756 L73.2686338,20.2065756 L73.0858885,20.7478439 L72.4686154,20.7478439 L73.5708887,17.6910634 L74.0346171,17.6910634 L75.1409515,20.7478439 L74.5236784,20.7478439 Z" id="Fill-63" fill="#FFFFFF"></path>
                                    <path d="M76.6637712,18.2234146 L76.1062529,18.2234146 L76.1062529,19.0302439 L76.6637712,19.0302439 C76.9232889,19.0302439 77.0936578,18.8628293 77.0936578,18.6269268 C77.0936578,18.3906341 76.9232889,18.2234146 76.6637712,18.2234146 L76.6637712,18.2234146 Z M77.1234385,20.7479024 L76.5318851,19.5281951 L76.1062529,19.5281951 L76.1062529,20.7479024 L75.5148929,20.7479024 L75.5148929,17.6909268 L76.7018673,17.6909268 C77.3191404,17.6909268 77.6850178,18.1159024 77.6850178,18.6269268 C77.6850178,19.0561951 77.4255001,19.3225366 77.1317539,19.4296585 L77.8082017,20.7479024 L77.1234385,20.7479024 Z" id="Fill-65" fill="#FFFFFF"></path>
                                    <path d="M79.7779062,18.4120585 C79.6759942,18.2877659 79.5396604,18.2233756 79.3356432,18.2233756 L78.888739,18.2233756 L78.888739,20.2153756 L79.3356432,20.2153756 C79.5396604,20.2153756 79.6759942,20.1509854 79.7779062,20.0263024 C79.8885203,19.8891317 79.9055378,19.6700098 79.9055378,19.2062049 C79.9055378,18.7427902 79.8885203,18.5496195 79.7779062,18.4120585 M80.1907753,20.455961 C79.9910124,20.657522 79.705775,20.7478634 79.3907568,20.7478634 L78.297379,20.7478634 L78.297379,17.6910829 L79.3907568,17.6910829 C79.705775,17.6910829 79.9910124,17.7810341 80.1907753,17.9829854 C80.5311263,18.3264 80.4970912,18.7470829 80.4970912,19.2062049 C80.4970912,19.6659122 80.5311263,20.1121561 80.1907753,20.455961" id="Fill-67" fill="#FFFFFF"></path>
                                </g>
                            </g>
                        </g>
                    </g>
                </g>
            </g>
        </g>
    </g>
</svg>