<?xml version="1.0" encoding="UTF-8"?>
<svg width="71px" height="24px" viewBox="0 0 71 24" version="1.1" xmlns="http://www.w3.org/2000/svg" xmlns:xlink="http://www.w3.org/1999/xlink">
    <!-- Generator: Sketch 40 (33762) - http://www.bohemiancoding.com/sketch -->
    <title>Page 1</title>
    <desc>Created with Sketch.</desc>
    <defs>
        <polygon id="path-1" points="15.1321364 0.130090909 0 0.130090909 0 10.1159795 0 20.1018682 15.1321364 20.1018682 15.1321364 0.130090909"></polygon>
        <polygon id="path-3" points="18.2635227 0.130090909 0.129477273 0.130090909 0.129477273 20.1018682 18.2635227 20.1018682"></polygon>
        <polygon id="path-5" points="14.9423455 0.130090909 0.116618182 0.130090909 0.116618182 20.1018682 14.9423455 20.1018682 14.9423455 0.130090909"></polygon>
        <polygon id="path-7" points="0 23.8699091 70.7446364 23.8699091 70.7446364 0.136363636 0 0.136363636"></polygon>
    </defs>
    <g id="Page-1" stroke="none" stroke-width="1" fill="none" fill-rule="evenodd">
        <g id="Desktop-HD" transform="translate(-1196.000000, -950.000000)">
            <g id="Group-23" transform="translate(1196.000000, 910.000000)">
                <g id="Group-25">
                    <g id="Group-21" transform="translate(0.000000, 40.000000)">
                        <g id="Group-24">
                            <g id="Page-1">
                                <g id="Group-3" transform="translate(0.000000, 0.006273)">
                                    <mask id="mask-2" fill="white">
                                        <use xlink:href="#path-1"></use>
                                    </mask>
                                    <g id="Clip-2"></g>
                                    <path d="M5.26868182,16.4567318 C8.39318182,16.4567318 10.5068182,14.8026409 10.5068182,10.0241864 C10.5068182,5.24559545 8.39318182,3.77505 5.26868182,3.77505 L4.53354545,3.77505 L4.53354545,16.4567318 L5.26868182,16.4567318 Z M0,0.13005 L5.51372727,0.13005 C11.3338636,0.13005 15.1321364,3.16264091 15.1321364,10.0241864 C15.1321364,16.8857318 11.3338636,20.1018682 5.78945455,20.1018682 L0,20.1018682 L0,0.13005 Z" id="Fill-1" fill="#FFFFFF" mask="url(#mask-2)"></path>
                                </g>
                                <g id="Group-6" transform="translate(16.227273, 0.006273)">
                                    <mask id="mask-4" fill="white">
                                        <use xlink:href="#path-3"></use>
                                    </mask>
                                    <g id="Clip-5"></g>
                                    <path d="M0.129477273,0.13005 L4.81615909,0.13005 L5.42884091,10.7591864 C5.45938636,12.4746409 5.49006818,13.9755955 5.52075,15.7829591 L5.64320455,15.7829591 C5.91906818,13.9755955 6.28656818,12.4439591 6.62352273,10.7591864 L7.97134091,5.18423182 L10.8507955,5.18423182 L12.1065682,10.7591864 C12.4433864,12.4134136 12.7804773,13.9449136 13.08675,15.7829591 L13.2092045,15.7829591 C13.2398864,13.9449136 13.2704318,12.4134136 13.3316591,10.7591864 L13.8831136,0.13005 L18.2635227,0.13005 L15.8129318,20.1018682 L10.97325,20.1018682 L9.80911364,13.9142318 C9.56406818,12.6583227 9.31902273,11.3106409 9.25779545,10.1159591 L9.16588636,10.1159591 C9.04343182,11.3106409 8.89029545,12.6583227 8.64511364,13.9142318 L7.48111364,20.1018682 L2.79443182,20.1018682 L0.129477273,0.13005 Z" id="Fill-4" fill="#FFFFFF" mask="url(#mask-4)"></path>
                                </g>
                                <g id="Group-9" transform="translate(36.272727, 0.006273)">
                                    <mask id="mask-6" fill="white">
                                        <use xlink:href="#path-5"></use>
                                    </mask>
                                    <g id="Clip-8"></g>
                                    <path d="M0.116618182,0.13005 L4.83398182,0.13005 L6.79434545,7.20595909 L7.46811818,9.96282273 L7.59070909,9.96282273 L8.26461818,7.20595909 L10.2251182,0.13005 L14.9423455,0.13005 L14.9423455,20.1018682 L11.1439364,20.1018682 L11.1439364,13.9142318 C11.1439364,11.6781409 11.5421182,6.80764091 11.7260727,4.66345909 L11.6341636,4.66345909 L10.1025273,9.99350455 L8.57089091,14.8026409 L6.36534545,14.8026409 L4.8033,9.99350455 L3.36357273,4.66345909 L3.27166364,4.66345909 C3.48602727,6.80764091 3.85366364,11.6781409 3.85366364,13.9142318 L3.85366364,20.1018682 L0.116618182,20.1018682 L0.116618182,0.13005 Z" id="Fill-7" fill="#FFFFFF" mask="url(#mask-6)"></path>
                                </g>
                                <mask id="mask-8" fill="white">
                                    <use xlink:href="#path-7"></use>
                                </mask>
                                <g id="Clip-11"></g>
                                <polygon id="Fill-10" fill="#FFDC00" mask="url(#mask-8)" points="56.8351364 23.8699091 70.7446364 23.8699091 70.7446364 20.1081818 56.8351364 20.1081818"></polygon>
                            </g>
                        </g>
                    </g>
                </g>
            </g>
        </g>
    </g>
</svg>