<?xml version="1.0" encoding="UTF-8"?>
<svg width="105px" height="101px" viewBox="0 0 105 101" version="1.1" xmlns="http://www.w3.org/2000/svg" xmlns:xlink="http://www.w3.org/1999/xlink">
    <!-- Generator: Sketch 40 (33762) - http://www.bohemiancoding.com/sketch -->
    <title>Group 19</title>
    <desc>Created with Sketch.</desc>
    <defs>
        <linearGradient x1="57.582582%" y1="50%" x2="67.1136584%" y2="93.4708829%" id="linearGradient-1">
            <stop stop-color="#FBFBFB" offset="0%"></stop>
            <stop stop-color="#EAEAEA" offset="100%"></stop>
        </linearGradient>
    </defs>
    <g id="OK" stroke="none" stroke-width="1" fill="none" fill-rule="evenodd">
        <g id="iPhone-7-Copy-36" transform="translate(-149.000000, -387.000000)">
            <g id="Group-19" transform="translate(149.000000, 382.000000)">
                <g id="Group-21">
                    <g id="left-hand" transform="translate(59.408965, 61.435245) rotate(-30.000000) translate(-59.408965, -61.435245) translate(21.408965, 12.435245)">
                        <path d="M61.0955881,39.8006163 C61.0532075,39.7727087 60.970212,34.5812878 60.970212,34.5812878 C60.970212,30.5334877 57.8305124,27.0610607 53.8190664,26.9868382 C49.7310998,26.9114281 46.3936238,30.2312535 46.3936238,34.3372441 L46.3936238,28.6434851 C46.3936238,24.595685 43.2545128,21.123258 39.2424782,21.0490355 C35.1551002,20.9736254 31.8182128,24.2934509 31.8182128,28.3994414 L31.8182128,7.64860239 C31.8182128,3.58833292 28.5554916,0.29641511 24.5299187,0.29641511 C20.5049345,0.29641511 17.2422132,3.58833292 17.2422132,7.64860239 L17.2422132,64.3368046 C17.2422132,64.8658628 16.6082694,65.1312826 16.2374387,64.7566072 L12.7357377,61.2248022 C9.88975952,58.3538746 5.27497791,58.3538746 2.42899972,61.2248022 C-0.417567101,64.0957298 -0.417567101,68.7509671 2.42899972,71.6218947 L18.4553593,87.7887501 C24.4998991,93.8185887 33.0019279,97.5908747 42.429856,97.5908747 C60.7194599,97.5908747 75.5462116,83.4214962 75.5462116,65.9423864 L75.5462116,41.1312779 C75.5462116,37.0704147 72.2834904,33.7790906 68.2579175,33.7790906 C64.6844049,33.7790906 61.717171,36.3762855 61.0955881,39.8006163 Z" id="Fill-1" fill="url(#linearGradient-1)"></path>
                        <path d="M31.8180362,49.8607385 L31.8180362,28.3997383 C31.8180362,24.3394688 35.0807575,21.0481448 39.1063304,21.0481448 C43.1313146,21.0481448 46.3940358,24.3394688 46.3940358,28.3997383 L46.3940358,49.8607385" id="Stroke-5"></path>
                        <path d="M46.3939181,49.8607385 L46.3939181,34.337541 C46.3939181,30.2772715 49.657228,26.9859475 53.6822122,26.9859475 C57.7071965,26.9859475 60.9705064,30.2772715 60.9705064,34.337541 L60.9705064,49.8607385" id="Stroke-7"></path>
                        <path d="M60.9702709,49.8607385 L60.9702709,41.130981 C60.9702709,37.0707116 64.2329921,33.7793875 68.2579764,33.7793875 C72.2835493,33.7793875 75.5462705,37.0707116 75.5462705,41.130981 L75.5462705,65.9420895" id="Stroke-9"></path>
                    </g>
                    <g id="Group-20" transform="translate(0.000000, 5.000000)" fill="#FFFFFF">
                        <circle id="Oval-12" opacity="0.200000003" cx="23" cy="23" r="23"></circle>
                        <circle id="Oval-12" opacity="0.350543478" cx="23" cy="23" r="16"></circle>
                    </g>
                </g>
            </g>
        </g>
    </g>
</svg>